<svg width="24" height="25" viewBox="0 0 24 25" fill="none" xmlns="http://www.w3.org/2000/svg">
<g clip-path="url(#clip0)">
<path d="M12 0.291016C5.38323 0.291016 0 5.67424 0 12.291C0 18.9073 5.38323 24.291 12 24.291C18.6163 24.291 24 18.9073 24 12.291C24 5.67424 18.6173 0.291016 12 0.291016ZM14.9843 12.7135H13.032C13.032 15.8326 13.032 19.672 13.032 19.672H10.139C10.139 19.672 10.139 15.8698 10.139 12.7135H8.76388V10.2541H10.139V8.66337C10.139 7.52408 10.6804 5.74385 13.0586 5.74385L15.2023 5.75206V8.1394C15.2023 8.1394 13.8996 8.1394 13.6463 8.1394C13.3931 8.1394 13.0329 8.26604 13.0329 8.80934V10.2546H15.2371L14.9843 12.7135Z" fill="#333333"/>
</g>
<defs>
<clipPath id="clip0">
<rect width="24" height="24" fill="white" transform="translate(0 0.291016)"/>
</clipPath>
</defs>
</svg>
