<svg width="24" height="25" viewBox="0 0 24 25" fill="none" xmlns="http://www.w3.org/2000/svg">
<g clip-path="url(#clip0)">
<path d="M14.2969 12.291C14.2969 13.5596 13.2686 14.5879 12 14.5879C10.7314 14.5879 9.70312 13.5596 9.70312 12.291C9.70312 11.0225 10.7314 9.99414 12 9.99414C13.2686 9.99414 14.2969 11.0225 14.2969 12.291Z" fill="#333333"/>
<path d="M17.3716 8.22723C17.2612 7.92804 17.085 7.65723 16.8561 7.43494C16.6339 7.20605 16.3632 7.02991 16.0638 6.91949C15.821 6.8252 15.4563 6.71295 14.7845 6.68237C14.0577 6.64923 13.8398 6.64209 12 6.64209C10.16 6.64209 9.94208 6.64905 9.21552 6.68219C8.5437 6.71295 8.17877 6.8252 7.93616 6.91949C7.63678 7.02991 7.36597 7.20605 7.14386 7.43494C6.91498 7.65723 6.73883 7.92786 6.62823 8.22723C6.53394 8.47003 6.42169 8.83496 6.39111 9.50677C6.35797 10.2333 6.35083 10.4512 6.35083 12.2913C6.35083 14.1311 6.35797 14.349 6.39111 15.0757C6.42169 15.7476 6.53394 16.1123 6.62823 16.3551C6.73883 16.6545 6.91479 16.9251 7.14368 17.1474C7.36597 17.3763 7.6366 17.5524 7.93597 17.6628C8.17877 17.7573 8.5437 17.8696 9.21552 17.9001C9.94208 17.9333 10.1598 17.9402 11.9998 17.9402C13.84 17.9402 14.0579 17.9333 14.7843 17.9001C15.4561 17.8696 15.821 17.7573 16.0638 17.6628C16.6648 17.431 17.1398 16.9561 17.3716 16.3551C17.4659 16.1123 17.5781 15.7476 17.6089 15.0757C17.642 14.349 17.649 14.1311 17.649 12.2913C17.649 10.4512 17.642 10.2333 17.6089 9.50677C17.5783 8.83496 17.4661 8.47003 17.3716 8.22723V8.22723ZM12 15.8294C10.0457 15.8294 8.46149 14.2454 8.46149 12.2911C8.46149 10.3368 10.0457 8.75275 12 8.75275C13.9541 8.75275 15.5383 10.3368 15.5383 12.2911C15.5383 14.2454 13.9541 15.8294 12 15.8294ZM15.6782 9.43976C15.2216 9.43976 14.8513 9.06952 14.8513 8.61285C14.8513 8.15619 15.2216 7.78595 15.6782 7.78595C16.1349 7.78595 16.5051 8.15619 16.5051 8.61285C16.5049 9.06952 16.1349 9.43976 15.6782 9.43976Z" fill="#333333"/>
<path d="M12 0.291016C5.3736 0.291016 0 5.66461 0 12.291C0 18.9174 5.3736 24.291 12 24.291C18.6264 24.291 24 18.9174 24 12.291C24 5.66461 18.6264 0.291016 12 0.291016ZM18.8491 15.1319C18.8157 15.8654 18.6991 16.3662 18.5288 16.8046C18.1708 17.7302 17.4391 18.4619 16.5135 18.8198C16.0754 18.9901 15.5744 19.1066 14.8411 19.1401C14.1063 19.1736 13.8715 19.1816 12.0002 19.1816C10.1287 19.1816 9.8941 19.1736 9.15912 19.1401C8.42578 19.1066 7.9248 18.9901 7.48663 18.8198C7.02667 18.6468 6.61029 18.3756 6.26605 18.025C5.91559 17.6809 5.64441 17.2643 5.47137 16.8046C5.30109 16.3664 5.18445 15.8654 5.15112 15.1321C5.11725 14.3971 5.10938 14.1624 5.10938 12.291C5.10938 10.4197 5.11725 10.1849 5.15094 9.45013C5.18427 8.71661 5.30072 8.21582 5.47101 7.77747C5.64404 7.31769 5.91541 6.90112 6.26605 6.55707C6.61011 6.20642 7.02667 5.93524 7.48645 5.76221C7.9248 5.59192 8.4256 5.47546 9.15912 5.44196C9.89392 5.40845 10.1287 5.40039 12 5.40039C13.8713 5.40039 14.1061 5.40845 14.8409 5.44214C15.5744 5.47546 16.0752 5.59192 16.5135 5.76202C16.9733 5.93506 17.3899 6.20642 17.7341 6.55707C18.0846 6.90131 18.356 7.31769 18.5288 7.77747C18.6993 8.21582 18.8157 8.71661 18.8492 9.45013C18.8828 10.1849 18.8906 10.4197 18.8906 12.291C18.8906 14.1624 18.8828 14.3971 18.8491 15.1319Z" fill="#333333"/>
</g>
<defs>
<clipPath id="clip0">
<rect width="24" height="24" fill="white" transform="translate(0 0.291016)"/>
</clipPath>
</defs>
</svg>
