<svg width="177" height="42" viewBox="0 0 177 42" fill="none" xmlns="http://www.w3.org/2000/svg">
<path d="M8.36475 27.8247L23.7111 4.19332C25.2151 1.87739 28.3118 1.21918 30.6277 2.72316L40.9331 9.41556C43.249 10.9196 43.9072 14.0162 42.4032 16.3321L27.0568 39.9635L8.36475 27.8247Z" fill="url(#paint0_linear)"/>
<path d="M0 22.3906L9.20105 8.22227C10.705 5.90634 13.8017 5.24814 16.1176 6.75212L26.272 13.3465C28.588 14.8505 29.2462 17.9471 27.7422 20.263L18.5412 34.4314L0 22.3906Z" fill="url(#paint1_linear)"/>
<path d="M23.6494 15.8799C24.1572 15.0979 25.203 14.8756 25.985 15.3835C26.7671 15.8914 26.9894 16.9371 26.4815 17.7191L16.4707 33.1344L13.6386 31.2952L23.6494 15.8799Z" fill="white"/>
<path d="M38.2808 11.9742C38.7887 11.1921 39.8344 10.9698 40.6165 11.4777C41.3986 11.9856 41.6209 13.0313 41.113 13.8134L24.9808 38.6547L22.1487 36.8155L38.2808 11.9742Z" fill="white"/>
<path d="M51.8891 36.168C51.0251 36.168 50.2331 35.992 49.5131 35.64C48.8091 35.272 48.1931 34.792 47.6651 34.2C47.1531 33.608 46.7531 32.928 46.4651 32.16C46.1771 31.392 46.0331 30.6 46.0331 29.784C46.0331 28.92 46.1691 28.096 46.4411 27.312C46.7291 26.512 47.1291 25.816 47.6411 25.224C48.1531 24.632 48.7611 24.16 49.4651 23.808C50.1851 23.456 50.9771 23.28 51.8411 23.28C52.9131 23.28 53.8411 23.552 54.6251 24.096C55.4091 24.624 56.0811 25.296 56.6411 26.112V23.496H58.1051V36.048C58.1051 36.912 57.9371 37.672 57.6011 38.328C57.2811 39 56.8411 39.56 56.2811 40.008C55.7371 40.456 55.0891 40.792 54.3371 41.016C53.6011 41.24 52.8171 41.352 51.9851 41.352C50.5451 41.352 49.3851 41.096 48.5051 40.584C47.6251 40.072 46.9131 39.384 46.3691 38.52L47.3771 37.728C47.8731 38.528 48.5291 39.112 49.3451 39.48C50.1611 39.864 51.0411 40.056 51.9851 40.056C52.5931 40.056 53.1691 39.968 53.7131 39.792C54.2571 39.632 54.7291 39.384 55.1291 39.048C55.5451 38.728 55.8731 38.312 56.1131 37.8C56.3531 37.304 56.4731 36.72 56.4731 36.048V33.576C55.9931 34.376 55.3371 35.008 54.5051 35.472C53.6731 35.936 52.8011 36.168 51.8891 36.168ZM52.3451 34.8C52.8251 34.8 53.2971 34.712 53.7611 34.536C54.2251 34.36 54.6411 34.128 55.0091 33.84C55.3931 33.536 55.7131 33.2 55.9691 32.832C56.2251 32.464 56.3931 32.088 56.4731 31.704V27.84C56.2971 27.392 56.0571 26.976 55.7531 26.592C55.4491 26.208 55.1051 25.88 54.7211 25.608C54.3371 25.336 53.9211 25.12 53.4731 24.96C53.0411 24.8 52.6011 24.72 52.1531 24.72C51.4491 24.72 50.8171 24.872 50.2571 25.176C49.7131 25.464 49.2491 25.848 48.8651 26.328C48.4811 26.808 48.1851 27.352 47.9771 27.96C47.7851 28.568 47.6891 29.184 47.6891 29.808C47.6891 30.48 47.8091 31.12 48.0491 31.728C48.2891 32.336 48.6171 32.872 49.0331 33.336C49.4651 33.784 49.9611 34.144 50.5211 34.416C51.0811 34.672 51.6891 34.8 52.3451 34.8ZM67.7571 36.24C66.8451 36.24 66.0131 36.072 65.2611 35.736C64.5091 35.384 63.8531 34.912 63.2931 34.32C62.7491 33.728 62.3251 33.04 62.0211 32.256C61.7171 31.472 61.5651 30.648 61.5651 29.784C61.5651 28.904 61.7171 28.072 62.0211 27.288C62.3411 26.504 62.7731 25.816 63.3171 25.224C63.8771 24.632 64.5331 24.16 65.2851 23.808C66.0371 23.456 66.8611 23.28 67.7571 23.28C68.6531 23.28 69.4771 23.456 70.2291 23.808C70.9971 24.16 71.6531 24.632 72.1971 25.224C72.7571 25.816 73.1891 26.504 73.4931 27.288C73.8131 28.072 73.9731 28.904 73.9731 29.784C73.9731 30.648 73.8211 31.472 73.5171 32.256C73.2131 33.04 72.7811 33.728 72.2211 34.32C71.6771 34.912 71.0211 35.384 70.2531 35.736C69.5011 36.072 68.6691 36.24 67.7571 36.24ZM63.2211 29.808C63.2211 30.512 63.3411 31.168 63.5811 31.776C63.8211 32.368 64.1411 32.896 64.5411 33.36C64.9571 33.808 65.4371 34.16 65.9811 34.416C66.5411 34.672 67.1331 34.8 67.7571 34.8C68.3811 34.8 68.9651 34.672 69.5091 34.416C70.0691 34.144 70.5571 33.784 70.9731 33.336C71.3891 32.872 71.7171 32.336 71.9571 31.728C72.1971 31.12 72.3171 30.464 72.3171 29.76C72.3171 29.072 72.1971 28.424 71.9571 27.816C71.7171 27.192 71.3891 26.656 70.9731 26.208C70.5571 25.744 70.0691 25.384 69.5091 25.128C68.9651 24.856 68.3811 24.72 67.7571 24.72C67.1331 24.72 66.5491 24.856 66.0051 25.128C65.4611 25.384 64.9811 25.744 64.5651 26.208C64.1491 26.672 63.8211 27.216 63.5811 27.84C63.3411 28.448 63.2211 29.104 63.2211 29.808ZM82.7505 36.24C81.8385 36.24 81.0065 36.072 80.2545 35.736C79.5025 35.384 78.8465 34.912 78.2865 34.32C77.7425 33.728 77.3185 33.04 77.0145 32.256C76.7105 31.472 76.5585 30.648 76.5585 29.784C76.5585 28.904 76.7105 28.072 77.0145 27.288C77.3345 26.504 77.7665 25.816 78.3105 25.224C78.8705 24.632 79.5265 24.16 80.2785 23.808C81.0305 23.456 81.8545 23.28 82.7505 23.28C83.6465 23.28 84.4705 23.456 85.2225 23.808C85.9905 24.16 86.6465 24.632 87.1905 25.224C87.7505 25.816 88.1825 26.504 88.4865 27.288C88.8065 28.072 88.9665 28.904 88.9665 29.784C88.9665 30.648 88.8145 31.472 88.5105 32.256C88.2065 33.04 87.7745 33.728 87.2145 34.32C86.6705 34.912 86.0145 35.384 85.2465 35.736C84.4945 36.072 83.6625 36.24 82.7505 36.24ZM78.2145 29.808C78.2145 30.512 78.3345 31.168 78.5745 31.776C78.8145 32.368 79.1345 32.896 79.5345 33.36C79.9505 33.808 80.4305 34.16 80.9745 34.416C81.5345 34.672 82.1265 34.8 82.7505 34.8C83.3745 34.8 83.9585 34.672 84.5025 34.416C85.0625 34.144 85.5505 33.784 85.9665 33.336C86.3825 32.872 86.7105 32.336 86.9505 31.728C87.1905 31.12 87.3105 30.464 87.3105 29.76C87.3105 29.072 87.1905 28.424 86.9505 27.816C86.7105 27.192 86.3825 26.656 85.9665 26.208C85.5505 25.744 85.0625 25.384 84.5025 25.128C83.9585 24.856 83.3745 24.72 82.7505 24.72C82.1265 24.72 81.5425 24.856 80.9985 25.128C80.4545 25.384 79.9745 25.744 79.5585 26.208C79.1425 26.672 78.8145 27.216 78.5745 27.84C78.3345 28.448 78.2145 29.104 78.2145 29.808ZM97.5519 36.24C96.6879 36.24 95.8879 36.064 95.1519 35.712C94.4159 35.344 93.7839 34.864 93.2559 34.272C92.7279 33.68 92.3119 33 92.0079 32.232C91.7199 31.448 91.5759 30.632 91.5759 29.784C91.5759 28.904 91.7199 28.072 92.0079 27.288C92.2959 26.488 92.6879 25.792 93.1839 25.2C93.6959 24.608 94.2959 24.144 94.9839 23.808C95.6879 23.456 96.4559 23.28 97.2879 23.28C98.3439 23.28 99.2799 23.56 100.096 24.12C100.912 24.664 101.552 25.328 102.016 26.112V18.48H103.648V33.888C103.648 34.336 103.84 34.56 104.224 34.56V36C103.984 36.048 103.792 36.072 103.648 36.072C103.264 36.072 102.928 35.952 102.64 35.712C102.352 35.456 102.208 35.152 102.208 34.8V33.576C101.712 34.392 101.04 35.04 100.192 35.52C99.3439 36 98.4639 36.24 97.5519 36.24ZM97.9119 34.8C98.3119 34.8 98.7359 34.72 99.1839 34.56C99.6479 34.4 100.08 34.184 100.48 33.912C100.88 33.624 101.216 33.296 101.488 32.928C101.776 32.544 101.952 32.136 102.016 31.704V27.84C101.856 27.408 101.624 27.008 101.32 26.64C101.016 26.256 100.664 25.92 100.264 25.632C99.8799 25.344 99.4639 25.12 99.0159 24.96C98.5679 24.8 98.1279 24.72 97.6959 24.72C97.0239 24.72 96.4159 24.864 95.8719 25.152C95.3279 25.44 94.8559 25.824 94.4559 26.304C94.0719 26.768 93.7759 27.304 93.5679 27.912C93.3599 28.52 93.2559 29.144 93.2559 29.784C93.2559 30.456 93.3759 31.096 93.6159 31.704C93.8559 32.312 94.1839 32.848 94.5999 33.312C95.0159 33.76 95.5039 34.12 96.0639 34.392C96.6399 34.664 97.2559 34.8 97.9119 34.8ZM114.186 36.24C113.194 36.24 112.282 35.992 111.45 35.496C110.634 35 109.994 34.36 109.53 33.576V36H108.066V18.48H109.698V26.112C110.258 25.264 110.93 24.584 111.714 24.072C112.498 23.544 113.41 23.28 114.45 23.28C115.33 23.28 116.114 23.464 116.802 23.832C117.506 24.2 118.098 24.696 118.578 25.32C119.074 25.928 119.45 26.624 119.706 27.408C119.978 28.176 120.114 28.968 120.114 29.784C120.114 30.664 119.962 31.496 119.658 32.28C119.354 33.064 118.938 33.752 118.41 34.344C117.882 34.92 117.25 35.384 116.514 35.736C115.794 36.072 115.018 36.24 114.186 36.24ZM113.802 34.8C114.49 34.8 115.114 34.664 115.674 34.392C116.25 34.104 116.738 33.728 117.138 33.264C117.554 32.784 117.874 32.248 118.098 31.656C118.338 31.048 118.458 30.424 118.458 29.784C118.458 29.128 118.346 28.496 118.122 27.888C117.914 27.28 117.61 26.744 117.21 26.28C116.826 25.8 116.354 25.424 115.794 25.152C115.25 24.864 114.65 24.72 113.994 24.72C113.498 24.72 113.034 24.808 112.602 24.984C112.17 25.144 111.77 25.368 111.402 25.656C111.034 25.944 110.706 26.28 110.418 26.664C110.13 27.032 109.89 27.424 109.698 27.84V31.728C109.762 32.16 109.93 32.568 110.202 32.952C110.49 33.32 110.826 33.64 111.21 33.912C111.61 34.184 112.034 34.4 112.482 34.56C112.946 34.72 113.386 34.8 113.802 34.8ZM128.926 36.24C128.014 36.24 127.182 36.072 126.43 35.736C125.678 35.384 125.022 34.912 124.462 34.32C123.918 33.728 123.494 33.04 123.19 32.256C122.886 31.472 122.734 30.648 122.734 29.784C122.734 28.904 122.886 28.072 123.19 27.288C123.51 26.504 123.942 25.816 124.486 25.224C125.046 24.632 125.702 24.16 126.454 23.808C127.206 23.456 128.03 23.28 128.926 23.28C129.822 23.28 130.646 23.456 131.398 23.808C132.166 24.16 132.822 24.632 133.366 25.224C133.926 25.816 134.358 26.504 134.662 27.288C134.982 28.072 135.142 28.904 135.142 29.784C135.142 30.648 134.99 31.472 134.686 32.256C134.382 33.04 133.95 33.728 133.39 34.32C132.846 34.912 132.19 35.384 131.422 35.736C130.67 36.072 129.838 36.24 128.926 36.24ZM124.39 29.808C124.39 30.512 124.51 31.168 124.75 31.776C124.99 32.368 125.31 32.896 125.71 33.36C126.126 33.808 126.606 34.16 127.15 34.416C127.71 34.672 128.302 34.8 128.926 34.8C129.55 34.8 130.134 34.672 130.678 34.416C131.238 34.144 131.726 33.784 132.142 33.336C132.558 32.872 132.886 32.336 133.126 31.728C133.366 31.12 133.486 30.464 133.486 29.76C133.486 29.072 133.366 28.424 133.126 27.816C132.886 27.192 132.558 26.656 132.142 26.208C131.726 25.744 131.238 25.384 130.678 25.128C130.134 24.856 129.55 24.72 128.926 24.72C128.302 24.72 127.718 24.856 127.174 25.128C126.63 25.384 126.15 25.744 125.734 26.208C125.318 26.672 124.99 27.216 124.75 27.84C124.51 28.448 124.39 29.104 124.39 29.808ZM143.92 36.24C143.008 36.24 142.176 36.072 141.424 35.736C140.672 35.384 140.016 34.912 139.456 34.32C138.912 33.728 138.488 33.04 138.184 32.256C137.88 31.472 137.728 30.648 137.728 29.784C137.728 28.904 137.88 28.072 138.184 27.288C138.504 26.504 138.936 25.816 139.48 25.224C140.04 24.632 140.696 24.16 141.448 23.808C142.2 23.456 143.024 23.28 143.92 23.28C144.816 23.28 145.64 23.456 146.392 23.808C147.16 24.16 147.816 24.632 148.36 25.224C148.92 25.816 149.352 26.504 149.656 27.288C149.976 28.072 150.136 28.904 150.136 29.784C150.136 30.648 149.984 31.472 149.68 32.256C149.376 33.04 148.944 33.728 148.384 34.32C147.84 34.912 147.184 35.384 146.416 35.736C145.664 36.072 144.832 36.24 143.92 36.24ZM139.384 29.808C139.384 30.512 139.504 31.168 139.744 31.776C139.984 32.368 140.304 32.896 140.704 33.36C141.12 33.808 141.6 34.16 142.144 34.416C142.704 34.672 143.296 34.8 143.92 34.8C144.544 34.8 145.128 34.672 145.672 34.416C146.232 34.144 146.72 33.784 147.136 33.336C147.552 32.872 147.88 32.336 148.12 31.728C148.36 31.12 148.48 30.464 148.48 29.76C148.48 29.072 148.36 28.424 148.12 27.816C147.88 27.192 147.552 26.656 147.136 26.208C146.72 25.744 146.232 25.384 145.672 25.128C145.128 24.856 144.544 24.72 143.92 24.72C143.296 24.72 142.712 24.856 142.168 25.128C141.624 25.384 141.144 25.744 140.728 26.208C140.312 26.672 139.984 27.216 139.744 27.84C139.504 28.448 139.384 29.104 139.384 29.808ZM162.513 36L157.905 29.592L155.217 32.088V36H153.585V18.48H155.217V30.384L162.249 23.52H164.097L158.985 28.632L164.289 36H162.513ZM171.184 36.24C170.208 36.24 169.256 36.08 168.328 35.76C167.4 35.44 166.6 34.976 165.928 34.368L166.672 33.264C167.376 33.84 168.088 34.272 168.808 34.56C169.544 34.848 170.328 34.992 171.16 34.992C172.168 34.992 172.968 34.792 173.56 34.392C174.168 33.976 174.472 33.392 174.472 32.64C174.472 32.288 174.392 32 174.232 31.776C174.072 31.536 173.832 31.328 173.512 31.152C173.208 30.976 172.816 30.824 172.336 30.696C171.872 30.552 171.328 30.408 170.704 30.264C169.984 30.088 169.36 29.912 168.832 29.736C168.304 29.56 167.864 29.36 167.512 29.136C167.176 28.912 166.92 28.64 166.744 28.32C166.584 27.984 166.504 27.568 166.504 27.072C166.504 26.448 166.624 25.896 166.864 25.416C167.12 24.936 167.456 24.544 167.872 24.24C168.304 23.92 168.8 23.68 169.36 23.52C169.936 23.36 170.544 23.28 171.184 23.28C172.144 23.28 173.016 23.44 173.8 23.76C174.584 24.064 175.216 24.472 175.696 24.984L174.904 25.944C174.44 25.464 173.872 25.104 173.2 24.864C172.544 24.624 171.856 24.504 171.136 24.504C170.704 24.504 170.304 24.552 169.936 24.648C169.568 24.728 169.24 24.864 168.952 25.056C168.68 25.248 168.464 25.496 168.304 25.8C168.144 26.088 168.064 26.432 168.064 26.832C168.064 27.168 168.12 27.44 168.232 27.648C168.344 27.856 168.528 28.04 168.784 28.2C169.04 28.344 169.36 28.48 169.744 28.608C170.144 28.72 170.624 28.84 171.184 28.968C171.984 29.16 172.688 29.352 173.296 29.544C173.904 29.736 174.408 29.96 174.808 30.216C175.224 30.472 175.536 30.784 175.744 31.152C175.952 31.52 176.056 31.968 176.056 32.496C176.056 33.648 175.616 34.56 174.736 35.232C173.856 35.904 172.672 36.24 171.184 36.24Z" fill="#333333"/>
<defs>
<linearGradient id="paint0_linear" x1="17.3995" y1="13.9123" x2="36.0916" y2="26.0511" gradientUnits="userSpaceOnUse">
<stop stop-color="#EE9B6D"/>
<stop offset="1" stop-color="#D87731"/>
</linearGradient>
<linearGradient id="paint1_linear" x1="5.96212" y1="13.2098" x2="24.5033" y2="25.2505" gradientUnits="userSpaceOnUse">
<stop stop-color="#E8756E"/>
<stop offset="1" stop-color="#CE5B5B"/>
</linearGradient>
</defs>
</svg>
