<svg width="231" height="129" viewBox="0 0 231 129" fill="none" xmlns="http://www.w3.org/2000/svg">
<path d="M12.0561 119.294C10.5441 119.294 9.15811 118.986 7.89811 118.37C6.66611 117.726 5.58811 116.886 4.66411 115.85C3.76811 114.814 3.06811 113.624 2.56411 112.28C2.06011 110.936 1.80811 109.55 1.80811 108.122C1.80811 106.61 2.04611 105.168 2.52211 103.796C3.02611 102.396 3.72611 101.178 4.62211 100.142C5.51811 99.106 6.58211 98.28 7.81411 97.664C9.07411 97.048 10.4601 96.74 11.9721 96.74C13.8481 96.74 15.4721 97.216 16.8441 98.168C18.2161 99.092 19.3921 100.268 20.3721 101.696V97.118H22.9341V119.084C22.9341 120.596 22.6401 121.926 22.0521 123.074C21.4921 124.25 20.7221 125.23 19.7421 126.014C18.7901 126.798 17.6561 127.386 16.3401 127.778C15.0521 128.17 13.6801 128.366 12.2241 128.366C9.70411 128.366 7.67411 127.918 6.13411 127.022C4.59411 126.126 3.34811 124.922 2.39611 123.41L4.16011 122.024C5.02811 123.424 6.17611 124.446 7.60411 125.09C9.03211 125.762 10.5721 126.098 12.2241 126.098C13.2881 126.098 14.2961 125.944 15.2481 125.636C16.2001 125.356 17.0261 124.922 17.7261 124.334C18.4541 123.774 19.0281 123.046 19.4481 122.15C19.8681 121.282 20.0781 120.26 20.0781 119.084V114.758C19.2381 116.158 18.0901 117.264 16.6341 118.076C15.1781 118.888 13.6521 119.294 12.0561 119.294ZM12.8541 116.9C13.6941 116.9 14.5201 116.746 15.3321 116.438C16.1441 116.13 16.8721 115.724 17.5161 115.22C18.1881 114.688 18.7481 114.1 19.1961 113.456C19.6441 112.812 19.9381 112.154 20.0781 111.482V104.72C19.7701 103.936 19.3501 103.208 18.8181 102.536C18.2861 101.864 17.6841 101.29 17.0121 100.814C16.3401 100.338 15.6121 99.96 14.8281 99.68C14.0721 99.4 13.3021 99.26 12.5181 99.26C11.2861 99.26 10.1801 99.526 9.20011 100.058C8.24811 100.562 7.43611 101.234 6.76411 102.074C6.09211 102.914 5.57411 103.866 5.21011 104.93C4.87411 105.994 4.70611 107.072 4.70611 108.164C4.70611 109.34 4.91611 110.46 5.33611 111.524C5.75611 112.588 6.33011 113.526 7.05811 114.338C7.81411 115.122 8.68211 115.752 9.66211 116.228C10.6421 116.676 11.7061 116.9 12.8541 116.9ZM39.825 119.42C38.229 119.42 36.773 119.126 35.457 118.538C34.141 117.922 32.993 117.096 32.013 116.06C31.061 115.024 30.319 113.82 29.787 112.448C29.255 111.076 28.989 109.634 28.989 108.122C28.989 106.582 29.255 105.126 29.787 103.754C30.347 102.382 31.103 101.178 32.055 100.142C33.035 99.106 34.183 98.28 35.499 97.664C36.815 97.048 38.257 96.74 39.825 96.74C41.393 96.74 42.835 97.048 44.151 97.664C45.495 98.28 46.643 99.106 47.595 100.142C48.575 101.178 49.331 102.382 49.863 103.754C50.423 105.126 50.703 106.582 50.703 108.122C50.703 109.634 50.437 111.076 49.905 112.448C49.373 113.82 48.617 115.024 47.637 116.06C46.685 117.096 45.537 117.922 44.193 118.538C42.877 119.126 41.421 119.42 39.825 119.42ZM31.887 108.164C31.887 109.396 32.097 110.544 32.517 111.608C32.937 112.644 33.497 113.568 34.197 114.38C34.925 115.164 35.765 115.78 36.717 116.228C37.697 116.676 38.733 116.9 39.825 116.9C40.917 116.9 41.939 116.676 42.891 116.228C43.871 115.752 44.725 115.122 45.453 114.338C46.181 113.526 46.755 112.588 47.175 111.524C47.595 110.46 47.805 109.312 47.805 108.08C47.805 106.876 47.595 105.742 47.175 104.678C46.755 103.586 46.181 102.648 45.453 101.864C44.725 101.052 43.871 100.422 42.891 99.974C41.939 99.498 40.917 99.26 39.825 99.26C38.733 99.26 37.711 99.498 36.759 99.974C35.807 100.422 34.967 101.052 34.239 101.864C33.511 102.676 32.937 103.628 32.517 104.72C32.097 105.784 31.887 106.932 31.887 108.164ZM66.0635 119.42C64.4675 119.42 63.0115 119.126 61.6955 118.538C60.3795 117.922 59.2315 117.096 58.2515 116.06C57.2995 115.024 56.5575 113.82 56.0255 112.448C55.4935 111.076 55.2275 109.634 55.2275 108.122C55.2275 106.582 55.4935 105.126 56.0255 103.754C56.5855 102.382 57.3415 101.178 58.2935 100.142C59.2735 99.106 60.4215 98.28 61.7375 97.664C63.0535 97.048 64.4955 96.74 66.0635 96.74C67.6315 96.74 69.0735 97.048 70.3895 97.664C71.7335 98.28 72.8815 99.106 73.8335 100.142C74.8135 101.178 75.5695 102.382 76.1015 103.754C76.6615 105.126 76.9415 106.582 76.9415 108.122C76.9415 109.634 76.6755 111.076 76.1435 112.448C75.6115 113.82 74.8555 115.024 73.8755 116.06C72.9235 117.096 71.7755 117.922 70.4315 118.538C69.1155 119.126 67.6595 119.42 66.0635 119.42ZM58.1255 108.164C58.1255 109.396 58.3355 110.544 58.7555 111.608C59.1755 112.644 59.7355 113.568 60.4355 114.38C61.1635 115.164 62.0035 115.78 62.9555 116.228C63.9355 116.676 64.9715 116.9 66.0635 116.9C67.1555 116.9 68.1775 116.676 69.1295 116.228C70.1095 115.752 70.9635 115.122 71.6915 114.338C72.4195 113.526 72.9935 112.588 73.4135 111.524C73.8335 110.46 74.0435 109.312 74.0435 108.08C74.0435 106.876 73.8335 105.742 73.4135 104.678C72.9935 103.586 72.4195 102.648 71.6915 101.864C70.9635 101.052 70.1095 100.422 69.1295 99.974C68.1775 99.498 67.1555 99.26 66.0635 99.26C64.9715 99.26 63.9495 99.498 62.9975 99.974C62.0455 100.422 61.2055 101.052 60.4775 101.864C59.7495 102.676 59.1755 103.628 58.7555 104.72C58.3355 105.784 58.1255 106.932 58.1255 108.164ZM91.966 119.42C90.454 119.42 89.054 119.112 87.766 118.496C86.478 117.852 85.372 117.012 84.448 115.976C83.524 114.94 82.796 113.75 82.264 112.406C81.76 111.034 81.508 109.606 81.508 108.122C81.508 106.582 81.76 105.126 82.264 103.754C82.768 102.354 83.454 101.136 84.322 100.1C85.218 99.064 86.268 98.252 87.472 97.664C88.704 97.048 90.048 96.74 91.504 96.74C93.352 96.74 94.99 97.23 96.418 98.21C97.846 99.162 98.966 100.324 99.778 101.696V88.34H102.634V115.304C102.634 116.088 102.97 116.48 103.642 116.48V119C103.222 119.084 102.886 119.126 102.634 119.126C101.962 119.126 101.374 118.916 100.87 118.496C100.366 118.048 100.114 117.516 100.114 116.9V114.758C99.246 116.186 98.07 117.32 96.586 118.16C95.102 119 93.562 119.42 91.966 119.42ZM92.596 116.9C93.296 116.9 94.038 116.76 94.822 116.48C95.634 116.2 96.39 115.822 97.09 115.346C97.79 114.842 98.378 114.268 98.854 113.624C99.358 112.952 99.666 112.238 99.778 111.482V104.72C99.498 103.964 99.092 103.264 98.56 102.62C98.028 101.948 97.412 101.36 96.712 100.856C96.04 100.352 95.312 99.96 94.528 99.68C93.744 99.4 92.974 99.26 92.218 99.26C91.042 99.26 89.978 99.512 89.026 100.016C88.074 100.52 87.248 101.192 86.548 102.032C85.876 102.844 85.358 103.782 84.994 104.846C84.63 105.91 84.448 107.002 84.448 108.122C84.448 109.298 84.658 110.418 85.078 111.482C85.498 112.546 86.072 113.484 86.8 114.296C87.528 115.08 88.382 115.71 89.362 116.186C90.37 116.662 91.448 116.9 92.596 116.9ZM121.075 119.42C119.339 119.42 117.743 118.986 116.287 118.118C114.859 117.25 113.739 116.13 112.927 114.758V119H110.365V88.34H113.221V101.696C114.201 100.212 115.377 99.022 116.749 98.126C118.121 97.202 119.717 96.74 121.537 96.74C123.077 96.74 124.449 97.062 125.653 97.706C126.885 98.35 127.921 99.218 128.761 100.31C129.629 101.374 130.287 102.592 130.735 103.964C131.211 105.308 131.449 106.694 131.449 108.122C131.449 109.662 131.183 111.118 130.651 112.49C130.119 113.862 129.391 115.066 128.467 116.102C127.543 117.11 126.437 117.922 125.149 118.538C123.889 119.126 122.531 119.42 121.075 119.42ZM120.403 116.9C121.607 116.9 122.699 116.662 123.679 116.186C124.687 115.682 125.541 115.024 126.241 114.212C126.969 113.372 127.529 112.434 127.921 111.398C128.341 110.334 128.551 109.242 128.551 108.122C128.551 106.974 128.355 105.868 127.963 104.804C127.599 103.74 127.067 102.802 126.367 101.99C125.695 101.15 124.869 100.492 123.889 100.016C122.937 99.512 121.887 99.26 120.739 99.26C119.871 99.26 119.059 99.414 118.303 99.722C117.547 100.002 116.847 100.394 116.203 100.898C115.559 101.402 114.985 101.99 114.481 102.662C113.977 103.306 113.557 103.992 113.221 104.72V111.524C113.333 112.28 113.627 112.994 114.103 113.666C114.607 114.31 115.195 114.87 115.867 115.346C116.567 115.822 117.309 116.2 118.093 116.48C118.905 116.76 119.675 116.9 120.403 116.9ZM146.871 119.42C145.275 119.42 143.819 119.126 142.503 118.538C141.187 117.922 140.039 117.096 139.059 116.06C138.107 115.024 137.365 113.82 136.833 112.448C136.301 111.076 136.035 109.634 136.035 108.122C136.035 106.582 136.301 105.126 136.833 103.754C137.393 102.382 138.149 101.178 139.101 100.142C140.081 99.106 141.229 98.28 142.545 97.664C143.861 97.048 145.303 96.74 146.871 96.74C148.439 96.74 149.881 97.048 151.197 97.664C152.541 98.28 153.689 99.106 154.641 100.142C155.621 101.178 156.377 102.382 156.909 103.754C157.469 105.126 157.749 106.582 157.749 108.122C157.749 109.634 157.483 111.076 156.951 112.448C156.419 113.82 155.663 115.024 154.683 116.06C153.731 117.096 152.583 117.922 151.239 118.538C149.923 119.126 148.467 119.42 146.871 119.42ZM138.933 108.164C138.933 109.396 139.143 110.544 139.563 111.608C139.983 112.644 140.543 113.568 141.243 114.38C141.971 115.164 142.811 115.78 143.763 116.228C144.743 116.676 145.779 116.9 146.871 116.9C147.963 116.9 148.985 116.676 149.937 116.228C150.917 115.752 151.771 115.122 152.499 114.338C153.227 113.526 153.801 112.588 154.221 111.524C154.641 110.46 154.851 109.312 154.851 108.08C154.851 106.876 154.641 105.742 154.221 104.678C153.801 103.586 153.227 102.648 152.499 101.864C151.771 101.052 150.917 100.422 149.937 99.974C148.985 99.498 147.963 99.26 146.871 99.26C145.779 99.26 144.757 99.498 143.805 99.974C142.853 100.422 142.013 101.052 141.285 101.864C140.557 102.676 139.983 103.628 139.563 104.72C139.143 105.784 138.933 106.932 138.933 108.164ZM173.109 119.42C171.513 119.42 170.057 119.126 168.741 118.538C167.425 117.922 166.277 117.096 165.297 116.06C164.345 115.024 163.603 113.82 163.071 112.448C162.539 111.076 162.273 109.634 162.273 108.122C162.273 106.582 162.539 105.126 163.071 103.754C163.631 102.382 164.387 101.178 165.339 100.142C166.319 99.106 167.467 98.28 168.783 97.664C170.099 97.048 171.541 96.74 173.109 96.74C174.677 96.74 176.119 97.048 177.435 97.664C178.779 98.28 179.927 99.106 180.879 100.142C181.859 101.178 182.615 102.382 183.147 103.754C183.707 105.126 183.987 106.582 183.987 108.122C183.987 109.634 183.721 111.076 183.189 112.448C182.657 113.82 181.901 115.024 180.921 116.06C179.969 117.096 178.821 117.922 177.477 118.538C176.161 119.126 174.705 119.42 173.109 119.42ZM165.171 108.164C165.171 109.396 165.381 110.544 165.801 111.608C166.221 112.644 166.781 113.568 167.481 114.38C168.209 115.164 169.049 115.78 170.001 116.228C170.981 116.676 172.017 116.9 173.109 116.9C174.201 116.9 175.223 116.676 176.175 116.228C177.155 115.752 178.009 115.122 178.737 114.338C179.465 113.526 180.039 112.588 180.459 111.524C180.879 110.46 181.089 109.312 181.089 108.08C181.089 106.876 180.879 105.742 180.459 104.678C180.039 103.586 179.465 102.648 178.737 101.864C178.009 101.052 177.155 100.422 176.175 99.974C175.223 99.498 174.201 99.26 173.109 99.26C172.017 99.26 170.995 99.498 170.043 99.974C169.091 100.422 168.251 101.052 167.523 101.864C166.795 102.676 166.221 103.628 165.801 104.72C165.381 105.784 165.171 106.932 165.171 108.164ZM205.648 119L197.584 107.786L192.88 112.154V119H190.024V88.34H192.88V109.172L205.186 97.16H208.42L199.474 106.106L208.756 119H205.648ZM220.821 119.42C219.113 119.42 217.447 119.14 215.823 118.58C214.199 118.02 212.799 117.208 211.623 116.144L212.925 114.212C214.157 115.22 215.403 115.976 216.663 116.48C217.951 116.984 219.323 117.236 220.779 117.236C222.543 117.236 223.943 116.886 224.979 116.186C226.043 115.458 226.575 114.436 226.575 113.12C226.575 112.504 226.435 112 226.155 111.608C225.875 111.188 225.455 110.824 224.895 110.516C224.363 110.208 223.677 109.942 222.837 109.718C222.025 109.466 221.073 109.214 219.981 108.962C218.721 108.654 217.629 108.346 216.705 108.038C215.781 107.73 215.011 107.38 214.395 106.988C213.807 106.596 213.359 106.12 213.051 105.56C212.771 104.972 212.631 104.244 212.631 103.376C212.631 102.284 212.841 101.318 213.261 100.478C213.709 99.638 214.297 98.952 215.025 98.42C215.781 97.86 216.649 97.44 217.629 97.16C218.637 96.88 219.701 96.74 220.821 96.74C222.501 96.74 224.027 97.02 225.399 97.58C226.771 98.112 227.877 98.826 228.717 99.722L227.331 101.402C226.519 100.562 225.525 99.932 224.349 99.512C223.201 99.092 221.997 98.882 220.737 98.882C219.981 98.882 219.281 98.966 218.637 99.134C217.993 99.274 217.419 99.512 216.915 99.848C216.439 100.184 216.061 100.618 215.781 101.15C215.501 101.654 215.361 102.256 215.361 102.956C215.361 103.544 215.459 104.02 215.655 104.384C215.851 104.748 216.173 105.07 216.621 105.35C217.069 105.602 217.629 105.84 218.301 106.064C219.001 106.26 219.841 106.47 220.821 106.694C222.221 107.03 223.453 107.366 224.517 107.702C225.581 108.038 226.463 108.43 227.163 108.878C227.891 109.326 228.437 109.872 228.801 110.516C229.165 111.16 229.347 111.944 229.347 112.868C229.347 114.884 228.577 116.48 227.037 117.656C225.497 118.832 223.425 119.42 220.821 119.42Z" fill="#333333"/>
<path d="M88.7559 52.4106L120.068 4.19344C121.572 1.87752 124.669 1.2193 126.985 2.72328L153.807 20.1415C156.123 21.6454 156.781 24.7421 155.277 27.058L123.964 75.2752L88.7559 52.4106Z" fill="url(#paint0_linear)"/>
<path d="M73 42.1748L92.7373 11.7821C94.2412 9.46618 97.3379 8.80797 99.6538 10.3119L126.191 27.5455C128.507 29.0495 129.165 32.1461 127.661 34.462L107.924 64.8547L73 42.1748Z" fill="url(#paint1_linear)"/>
<path d="M117.546 29.9114C118.503 28.4383 120.472 28.0197 121.946 28.9763C123.419 29.933 123.837 31.9027 122.881 33.3758L104.024 62.4119L98.6899 58.9475L117.546 29.9114Z" fill="white"/>
<path d="M145.106 22.5545C146.062 21.0814 148.032 20.6627 149.505 21.6194C150.978 22.576 151.397 24.5457 150.44 26.0188L120.054 72.8098L114.719 69.3455L145.106 22.5545Z" fill="white"/>
<defs>
<linearGradient id="paint0_linear" x1="105.774" y1="26.2054" x2="140.982" y2="49.0699" gradientUnits="userSpaceOnUse">
<stop stop-color="#EE9B6D"/>
<stop offset="1" stop-color="#D87731"/>
</linearGradient>
<linearGradient id="paint1_linear" x1="84.2302" y1="24.8818" x2="119.154" y2="47.5617" gradientUnits="userSpaceOnUse">
<stop stop-color="#E8756E"/>
<stop offset="1" stop-color="#CE5B5B"/>
</linearGradient>
</defs>
</svg>
