<svg width="24" height="25" viewBox="0 0 24 25" fill="none" xmlns="http://www.w3.org/2000/svg">
<g clip-path="url(#clip0)">
<path d="M12 0.291016C5.38323 0.291016 0 5.67424 0 12.291C0 18.9073 5.38323 24.291 12 24.291C18.6163 24.291 24 18.9073 24 12.291C24 5.67424 18.6173 0.291016 12 0.291016ZM17.3533 9.54454C17.3586 9.66345 17.3615 9.78332 17.3615 9.9032C17.3615 13.5531 14.5841 17.7603 9.50246 17.7603C7.94264 17.7603 6.49061 17.3045 5.26867 16.5205C5.48473 16.5461 5.70466 16.5591 5.9275 16.5591C7.22194 16.5591 8.41247 16.1173 9.35793 15.3768C8.14952 15.3546 7.12914 14.5561 6.77773 13.4583C6.94594 13.4902 7.11947 13.5081 7.29687 13.5081C7.5487 13.5081 7.79328 13.4753 8.02481 13.4119C6.7613 13.1587 5.80955 12.0426 5.80955 10.7036C5.80955 10.692 5.80956 10.68 5.81004 10.6688C6.18223 10.8752 6.60807 11 7.0605 11.014C6.31999 10.5195 5.83227 9.6736 5.83227 8.71557C5.83227 8.20901 5.9681 7.73434 6.20591 7.32638C7.56755 8.99786 9.60348 10.097 11.8985 10.213C11.8511 10.0105 11.8274 9.80024 11.8274 9.58321C11.8274 8.0582 13.0639 6.82127 14.5889 6.82127C15.3835 6.82127 16.1004 7.15672 16.605 7.69326C17.2348 7.56951 17.8245 7.3404 18.3596 7.02283C18.1518 7.66812 17.7153 8.20901 17.1435 8.55123C17.7027 8.48452 18.2364 8.33661 18.7299 8.11668C18.3616 8.66965 17.8932 9.1564 17.3533 9.54454Z" fill="#333333"/>
</g>
<defs>
<clipPath id="clip0">
<rect width="24" height="24" fill="white" transform="translate(0 0.291016)"/>
</clipPath>
</defs>
</svg>
